<svg width="91" height="105" viewBox="0 0 91 105" fill="none" xmlns="http://www.w3.org/2000/svg">
    <path d="M90.8182 56.4545C90.8182 66.2727 89.0455 74.7576 85.5 81.9091C81.9545 89.0606 77.0909 94.5758 70.9091 98.4545C64.7273 102.333 57.6667 104.273 49.7273 104.273C41.7879 104.273 34.7273 102.333 28.5455 98.4545C22.3636 94.5758 17.5 89.0606 13.9545 81.9091C10.4091 74.7576 8.63636 66.2727 8.63636 56.4545C8.63636 46.6364 10.4091 38.1515 13.9545 31C17.5 23.8485 22.3636 18.3333 28.5455 14.4545C34.7273 10.5758 41.7879 8.63636 49.7273 8.63636C57.6667 8.63636 64.7273 10.5758 70.9091 14.4545C77.0909 18.3333 81.9545 23.8485 85.5 31C89.0455 38.1515 90.8182 46.6364 90.8182 56.4545ZM79.9091 56.4545C79.9091 48.3939 78.5606 41.5909 75.8636 36.0455C73.197 30.5 69.5758 26.303 65 23.4545C60.4545 20.6061 55.3636 19.1818 49.7273 19.1818C44.0909 19.1818 38.9848 20.6061 34.4091 23.4545C29.8636 26.303 26.2424 30.5 23.5455 36.0455C20.8788 41.5909 19.5455 48.3939 19.5455 56.4545C19.5455 64.5151 20.8788 71.3182 23.5455 76.8636C26.2424 82.4091 29.8636 86.6061 34.4091 89.4545C38.9848 92.303 44.0909 93.7273 49.7273 93.7273C55.3636 93.7273 60.4545 92.303 65 89.4545C69.5758 86.6061 73.197 82.4091 75.8636 76.8636C78.5606 71.3182 79.9091 64.5151 79.9091 56.4545Z" fill="#04FFDB"/>
    <path d="M86.8182 52.4545C86.8182 62.2727 85.0455 70.7576 81.5 77.9091C77.9545 85.0606 73.0909 90.5758 66.9091 94.4545C60.7273 98.3333 53.6667 100.273 45.7273 100.273C37.7879 100.273 30.7273 98.3333 24.5455 94.4545C18.3636 90.5758 13.5 85.0606 9.95455 77.9091C6.40909 70.7576 4.63636 62.2727 4.63636 52.4545C4.63636 42.6364 6.40909 34.1515 9.95455 27C13.5 19.8485 18.3636 14.3333 24.5455 10.4545C30.7273 6.57575 37.7879 4.63636 45.7273 4.63636C53.6667 4.63636 60.7273 6.57575 66.9091 10.4545C73.0909 14.3333 77.9545 19.8485 81.5 27C85.0455 34.1515 86.8182 42.6364 86.8182 52.4545ZM75.9091 52.4545C75.9091 44.3939 74.5606 37.5909 71.8636 32.0455C69.197 26.5 65.5758 22.303 61 19.4545C56.4545 16.6061 51.3636 15.1818 45.7273 15.1818C40.0909 15.1818 34.9848 16.6061 30.4091 19.4545C25.8636 22.303 22.2424 26.5 19.5455 32.0455C16.8788 37.5909 15.5455 44.3939 15.5455 52.4545C15.5455 60.5151 16.8788 67.3182 19.5455 72.8636C22.2424 78.4091 25.8636 82.6061 30.4091 85.4545C34.9848 88.303 40.0909 89.7273 45.7273 89.7273C51.3636 89.7273 56.4545 88.303 61 85.4545C65.5758 82.6061 69.197 78.4091 71.8636 72.8636C74.5606 67.3182 75.9091 60.5151 75.9091 52.4545Z" fill="#1A8DFD"/>
    <path d="M82.8182 48.4545C82.8182 58.2727 81.0455 66.7576 77.5 73.9091C73.9545 81.0606 69.0909 86.5758 62.9091 90.4545C56.7273 94.3333 49.6667 96.2727 41.7273 96.2727C33.7879 96.2727 26.7273 94.3333 20.5455 90.4545C14.3636 86.5758 9.5 81.0606 5.95455 73.9091C2.40909 66.7576 0.636364 58.2727 0.636364 48.4545C0.636364 38.6364 2.40909 30.1515 5.95455 23C9.5 15.8485 14.3636 10.3333 20.5455 6.45454C26.7273 2.57575 33.7879 0.63636 41.7273 0.63636C49.6667 0.63636 56.7273 2.57575 62.9091 6.45454C69.0909 10.3333 73.9545 15.8485 77.5 23C81.0455 30.1515 82.8182 38.6364 82.8182 48.4545ZM71.9091 48.4545C71.9091 40.3939 70.5606 33.5909 67.8636 28.0455C65.197 22.5 61.5758 18.303 57 15.4545C52.4545 12.6061 47.3636 11.1818 41.7273 11.1818C36.0909 11.1818 30.9848 12.6061 26.4091 15.4545C21.8636 18.303 18.2424 22.5 15.5455 28.0455C12.8788 33.5909 11.5455 40.3939 11.5455 48.4545C11.5455 56.5151 12.8788 63.3182 15.5455 68.8636C18.2424 74.4091 21.8636 78.6061 26.4091 81.4545C30.9848 84.303 36.0909 85.7273 41.7273 85.7273C47.3636 85.7273 52.4545 84.303 57 81.4545C61.5758 78.6061 65.197 74.4091 67.8636 68.8636C70.5606 63.3182 71.9091 56.5151 71.9091 48.4545Z" fill="#AE47FC"/>
</svg>
